<svg width="468" height="405" viewBox="0 0 468 405" fill="none" xmlns="http://www.w3.org/2000/svg">
<g clip-path="url(#clip0)">
<g opacity="0.8">
<path opacity="0.8" d="M240.686 136.943C285.752 136.943 322.285 108.638 322.285 73.723C322.285 38.8077 285.752 10.5032 240.686 10.5032C195.62 10.5032 159.087 38.8077 159.087 73.723C159.087 108.638 195.62 136.943 240.686 136.943Z" fill="url(#paint0_linear)"/>
</g>
<path d="M240.686 135.539C284.752 135.539 320.474 107.863 320.474 73.723C320.474 39.5832 284.752 11.9073 240.686 11.9073C196.62 11.9073 160.897 39.5832 160.897 73.723C160.897 107.863 196.62 135.539 240.686 135.539Z" fill="#871E99"/>
<path opacity="0.1" d="M173.795 80.5933C173.795 46.4537 209.513 18.7776 253.578 18.7776C267.259 18.7023 280.803 21.4984 293.336 26.9851C279.312 17.5128 260.966 11.7569 240.886 11.7569C196.822 11.7569 161.098 39.433 161.098 73.5725C161.098 96.4957 177.205 116.505 201.134 127.181C184.381 115.847 173.795 99.1814 173.795 80.5933Z" fill="white"/>
<path opacity="0.2" d="M240.685 98.5685L329.137 251.787L417.589 405H240.685H63.7812L152.233 251.787L240.685 98.5685Z" fill="#871E99"/>
<g opacity="0.3">
<path opacity="0.3" d="M261.674 315.497L268.543 295.109C270.906 288.009 270.925 280.338 268.597 273.226C266.27 266.115 261.72 259.939 255.618 255.609L255.673 255.576C252.971 253.673 250.008 252.172 246.876 251.118L246.781 251.085L246.675 251.052C243.635 250.023 240.466 249.427 237.26 249.28C236.126 249.221 234.99 249.221 233.856 249.28C231.888 249.383 229.933 249.653 228.011 250.088C227.454 250.21 226.897 250.349 226.39 250.5C225.883 250.65 225.315 250.812 224.785 250.985C223.727 251.336 222.685 251.731 221.665 252.183C221.153 252.406 220.646 252.64 220.15 252.89C218.651 253.631 217.207 254.48 215.832 255.431C215.37 255.749 214.918 256.077 214.473 256.412C208.966 260.6 204.843 266.346 202.639 272.905L191.841 305.027C190.142 310.065 189.631 315.428 190.348 320.696C190.46 321.504 190.599 322.306 190.761 323.103C190.922 323.9 191.123 324.685 191.318 325.465C191.468 325.984 191.624 326.502 191.797 327.014C192.053 327.778 192.354 328.541 192.638 329.288C192.844 329.784 193.062 330.28 193.29 330.77C193.741 331.745 194.243 332.698 194.783 333.628C195.324 334.559 195.897 335.467 196.544 336.348C197.012 337.005 197.508 337.651 198.02 338.275C198.711 339.111 199.435 339.947 200.204 340.688C203.532 344.043 207.515 346.678 211.904 348.428L212.094 348.506C212.329 348.087 212.59 347.684 212.874 347.296C214.545 345.006 217.453 343.396 220.222 343.998C220.423 344.042 220.623 344.104 220.824 344.165C222.228 344.661 223.61 345.547 224.964 345.981C225.456 346.203 225.991 346.314 226.531 346.307C227.071 346.3 227.602 346.176 228.089 345.942C230.797 344.499 229.794 339.947 232.117 337.952C232.225 337.86 232.339 337.775 232.457 337.696C232.424 337.656 232.395 337.613 232.368 337.568C234.162 336.453 236.647 337.194 238.714 337.913C240.942 338.699 243.851 339.228 245.4 337.406C246.447 336.158 246.369 334.258 247.366 332.949C248.525 331.444 250.709 331.277 252.598 331.544L252.693 331.572C256.314 333.066 260.27 330.586 259.991 326.68C259.662 321.47 261.3 316.561 261.674 315.497Z" fill="url(#paint1_linear)"/>
</g>
<path d="M213.502 345.58C215.129 343.352 217.92 341.791 220.595 342.399C223.269 343.006 225.804 345.552 228.183 344.276C231.437 342.538 229.13 336.147 234.412 335.673C235.512 335.601 236.615 335.792 237.627 336.231C239.855 337.139 243.343 338.164 245.059 336.119C246.067 334.916 245.995 333.082 246.959 331.834C248.073 330.386 250.196 330.202 252.006 330.48L252.096 330.508C255.589 331.951 259.411 329.555 259.138 325.789C258.787 320.774 260.38 316.049 260.726 315.024L267.345 295.349C270.16 286.914 269.522 277.708 265.571 269.743C261.619 261.778 254.675 255.701 246.257 252.84C237.824 250.028 228.621 250.669 220.659 254.621C212.697 258.574 206.622 265.518 203.763 273.936L193.328 304.877C190.616 313.015 191.114 321.881 194.719 329.664C198.325 337.447 204.767 343.559 212.728 346.75C212.963 346.346 213.221 345.955 213.502 345.58Z" fill="white"/>
<path opacity="0.2" d="M225.838 274.471C227.841 274.471 229.465 272.847 229.465 270.843C229.465 268.84 227.841 267.216 225.838 267.216C223.835 267.216 222.211 268.84 222.211 270.843C222.211 272.847 223.835 274.471 225.838 274.471Z" fill="black"/>
<path opacity="0.2" d="M246.463 281.408C248.466 281.408 250.09 279.784 250.09 277.78C250.09 275.777 248.466 274.153 246.463 274.153C244.46 274.153 242.836 275.777 242.836 277.78C242.836 279.784 244.46 281.408 246.463 281.408Z" fill="black"/>
<path d="M234.976 289.255C235.934 286.409 235.171 283.583 233.273 282.944C231.374 282.305 229.059 284.095 228.101 286.941C227.143 289.788 227.905 292.614 229.804 293.253C231.702 293.892 234.018 292.102 234.976 289.255Z" fill="#E0E0E0"/>
<path d="M307.838 277.084C310.841 277.084 313.276 274.649 313.276 271.646C313.276 268.642 310.841 266.207 307.838 266.207C304.835 266.207 302.4 268.642 302.4 271.646C302.4 274.649 304.835 277.084 307.838 277.084Z" fill="white"/>
<path d="M325.065 265.812C326.566 265.812 327.783 264.594 327.783 263.093C327.783 261.591 326.566 260.373 325.065 260.373C323.563 260.373 322.346 261.591 322.346 263.093C322.346 264.594 323.563 265.812 325.065 265.812Z" fill="white"/>
<g opacity="0.5">
<g opacity="0.3">
<path opacity="0.3" d="M268.916 96.518L275.785 76.1301C278.148 69.03 278.167 61.3588 275.84 54.2472C273.512 47.1355 268.962 40.9598 262.86 36.6303L262.915 36.5968C260.213 34.6944 257.25 33.1929 254.118 32.1392L254.023 32.1058L253.918 32.0724C250.877 31.044 247.708 30.4476 244.502 30.3005C243.368 30.242 242.232 30.242 241.098 30.3005C239.13 30.4035 237.175 30.6738 235.253 31.1084C234.696 31.231 234.139 31.3703 233.632 31.5208C233.125 31.6712 232.557 31.8328 232.027 32.0055C230.969 32.3565 229.927 32.7522 228.907 33.2035C228.395 33.4264 227.888 33.6604 227.392 33.9111C225.893 34.6515 224.45 35.5007 223.074 36.452C222.612 36.7696 222.16 37.0983 221.715 37.4326C216.208 41.621 212.085 47.3669 209.881 53.9257L199.084 86.0482C197.384 91.086 196.873 96.4486 197.591 101.717C197.702 102.525 197.841 103.327 198.003 104.124C198.164 104.921 198.365 105.706 198.56 106.486C198.71 107.004 198.866 107.523 199.039 108.035C199.295 108.799 199.596 109.562 199.88 110.309C200.087 110.805 200.304 111.3 200.532 111.791C200.983 112.766 201.485 113.719 202.025 114.649C202.566 115.58 203.14 116.488 203.786 117.368C204.254 118.026 204.75 118.672 205.262 119.296C205.953 120.132 206.678 120.94 207.446 121.709C210.774 125.064 214.757 127.699 219.146 129.448L219.336 129.526C219.571 129.108 219.832 128.704 220.116 128.317C221.787 126.027 224.695 124.417 227.464 125.019C227.665 125.063 227.866 125.125 228.066 125.186C229.47 125.682 230.852 126.568 232.206 127.002C232.698 127.224 233.233 127.335 233.773 127.328C234.313 127.321 234.845 127.197 235.331 126.963C238.039 125.52 237.036 120.968 239.359 118.973C239.468 118.881 239.581 118.795 239.699 118.717C239.666 118.676 239.637 118.633 239.61 118.589C241.404 117.474 243.889 118.215 245.956 118.934C248.185 119.72 251.093 120.249 252.642 118.427C253.689 117.179 253.611 115.279 254.608 113.969C255.767 112.465 257.951 112.298 259.84 112.565H259.935C263.556 114.059 267.512 111.579 267.233 107.673C266.905 102.491 268.543 97.5822 268.916 96.518Z" fill="url(#paint2_linear)"/>
</g>
<path opacity="0.5" d="M220.745 126.601C222.372 124.372 225.164 122.812 227.838 123.42C230.512 124.027 233.047 126.573 235.426 125.297C238.68 123.559 236.373 117.168 241.655 116.694C242.756 116.621 243.858 116.812 244.87 117.251C247.098 118.16 250.586 119.185 252.302 117.14C253.31 115.936 253.238 114.103 254.202 112.855C255.316 111.406 257.439 111.222 259.25 111.501L259.339 111.529C262.832 112.972 266.654 110.576 266.381 106.809C266.03 101.795 267.623 97.0696 267.969 96.0444L274.588 76.3697C277.403 67.9353 276.765 58.7293 272.814 50.7638C268.862 42.7984 261.918 36.7213 253.5 33.861C245.067 31.049 235.864 31.6894 227.902 35.6422C219.94 39.595 213.866 46.5388 211.007 54.9565L200.571 85.8978C197.859 94.0354 198.357 102.902 201.962 110.685C205.568 118.468 212.01 124.579 219.971 127.771C220.206 127.366 220.465 126.976 220.745 126.601Z" fill="white"/>
<path opacity="0.2" d="M233.08 55.4914C235.083 55.4914 236.707 53.8674 236.707 51.8641C236.707 49.8607 235.083 48.2367 233.08 48.2367C231.077 48.2367 229.453 49.8607 229.453 51.8641C229.453 53.8674 231.077 55.4914 233.08 55.4914Z" fill="black"/>
<path opacity="0.2" d="M253.706 62.4286C255.709 62.4286 257.333 60.8045 257.333 58.8012C257.333 56.7979 255.709 55.1738 253.706 55.1738C251.703 55.1738 250.079 56.7979 250.079 58.8012C250.079 60.8045 251.703 62.4286 253.706 62.4286Z" fill="black"/>
</g>
<path opacity="0.1" d="M317.304 55.4023C318.34 59.406 318.862 63.5251 318.858 67.6607C318.858 101.8 283.14 129.476 239.075 129.476C203.012 129.454 172.541 110.922 162.686 85.491C170.006 113.78 202.243 135.082 240.914 135.082C284.978 135.082 320.702 107.406 320.702 73.2661C320.691 67.1518 319.538 61.0935 317.304 55.4023Z" fill="black"/>
<g opacity="0.8">
<path opacity="0.8" d="M240.685 143.807C331.821 143.807 405.7 124.496 405.7 100.675C405.7 76.8531 331.821 57.5419 240.685 57.5419C149.55 57.5419 75.6709 76.8531 75.6709 100.675C75.6709 124.496 149.55 143.807 240.685 143.807Z" fill="url(#paint3_linear)"/>
</g>
<path d="M240.685 58.9684C152.556 58.9684 81.1084 77.6401 81.1084 100.68H400.262C400.262 77.6401 328.814 58.9684 240.685 58.9684Z" fill="white"/>
<path d="M240.685 142.387C328.814 142.387 400.262 123.715 400.262 100.68H81.1084C81.1084 123.715 152.556 142.387 240.685 142.387Z" fill="white"/>
<path opacity="0.05" d="M240.685 142.387C328.814 142.387 400.262 123.715 400.262 100.68H81.1084C81.1084 123.715 152.556 142.387 240.685 142.387Z" fill="black"/>
<path opacity="0.05" d="M307.253 89.7926H174.118C168.82 89.7926 164.524 94.0884 164.524 99.3876V101.962C164.524 107.261 168.82 111.557 174.118 111.557H307.253C312.552 111.557 316.847 107.261 316.847 101.962V99.3876C316.847 94.0884 312.552 89.7926 307.253 89.7926Z" fill="black"/>
<path opacity="0.5" d="M74.5964 32.2117C74.1361 32.0108 73.7655 31.6479 73.555 31.1919C73.3445 30.7359 73.3086 30.2184 73.4543 29.7377C73.4776 29.6635 73.4926 29.5868 73.4988 29.5093C73.5131 29.2887 73.4557 29.0695 73.3352 28.8843C73.2147 28.6991 73.0377 28.5577 72.8303 28.4813C72.623 28.4049 72.3966 28.3975 72.1847 28.4602C71.9729 28.523 71.787 28.6525 71.6547 28.8295C71.6101 28.8919 71.5727 28.9592 71.5433 29.0301C71.3434 29.4912 70.9807 29.8626 70.5244 30.0733C70.0681 30.284 69.5502 30.3193 69.0696 30.1723C68.9952 30.1495 68.9186 30.1346 68.8411 30.1278C68.6206 30.1135 68.4015 30.1709 68.2162 30.2914C68.031 30.4119 67.8897 30.589 67.8133 30.7963C67.7368 31.0036 67.7295 31.2301 67.7922 31.442C67.8549 31.6539 67.9844 31.8398 68.1614 31.9721C68.2229 32.0196 68.2904 32.0589 68.362 32.0891C68.8223 32.29 69.1929 32.6529 69.4034 33.1089C69.6139 33.5649 69.6498 34.0824 69.5041 34.5631C69.4813 34.6355 69.4663 34.7103 69.4596 34.7859C69.444 35.0069 69.5004 35.227 69.6204 35.4133C69.7403 35.5995 69.9174 35.7419 70.1251 35.8191C70.3327 35.8963 70.5598 35.9041 70.7723 35.8414C70.9847 35.7787 71.1712 35.6488 71.3037 35.4713C71.3495 35.4076 71.3869 35.3383 71.4151 35.2651C71.6199 34.8091 71.9847 34.4438 72.4405 34.2385C72.8963 34.0332 73.4116 34.0019 73.8888 34.1507C73.9632 34.1735 74.0398 34.1885 74.1173 34.1953C74.3377 34.2095 74.5569 34.1521 74.7421 34.0317C74.9274 33.9112 75.0687 33.7341 75.1451 33.5268C75.2215 33.3194 75.2289 33.0929 75.1662 32.8811C75.1035 32.6692 74.974 32.4833 74.797 32.351C74.7367 32.2957 74.6693 32.2488 74.5964 32.2117Z" fill="#4D8AF0"/>
<path opacity="0.5" d="M358.182 202.715C357.727 202.509 357.362 202.144 357.157 201.688C356.952 201.233 356.92 200.718 357.068 200.241C357.091 200.166 357.106 200.09 357.112 200.012C357.126 199.792 357.069 199.572 356.948 199.387C356.828 199.202 356.651 199.061 356.444 198.984C356.236 198.908 356.01 198.9 355.798 198.963C355.586 199.026 355.4 199.155 355.268 199.332C355.223 199.395 355.186 199.462 355.157 199.533C354.957 199.994 354.594 200.365 354.138 200.576C353.681 200.787 353.163 200.822 352.683 200.675C352.608 200.652 352.532 200.637 352.454 200.631C352.234 200.616 352.015 200.674 351.83 200.794C351.644 200.915 351.503 201.092 351.427 201.299C351.35 201.506 351.343 201.733 351.405 201.945C351.468 202.157 351.598 202.343 351.775 202.475C351.836 202.522 351.904 202.562 351.975 202.592C352.43 202.798 352.795 203.163 353 203.618C353.205 204.074 353.237 204.589 353.09 205.066C353.067 205.138 353.052 205.213 353.045 205.289C353.029 205.51 353.086 205.73 353.206 205.916C353.326 206.102 353.503 206.245 353.71 206.322C353.918 206.399 354.145 206.407 354.358 206.344C354.57 206.282 354.757 206.152 354.889 205.974C354.935 205.91 354.972 205.841 355.001 205.768C355.205 205.312 355.57 204.947 356.026 204.741C356.482 204.536 356.997 204.505 357.474 204.654C357.549 204.676 357.625 204.691 357.703 204.698C357.923 204.712 358.142 204.655 358.328 204.534C358.513 204.414 358.654 204.237 358.731 204.03C358.807 203.822 358.814 203.596 358.752 203.384C358.689 203.172 358.559 202.986 358.382 202.854C358.322 202.799 358.255 202.752 358.182 202.715Z" fill="#4D8AF0"/>
<path opacity="0.5" d="M45.0671 281.837C44.6068 281.636 44.2362 281.273 44.0257 280.817C43.8152 280.361 43.7793 279.844 43.925 279.363C43.9484 279.289 43.9633 279.212 43.9696 279.134C43.9838 278.914 43.9264 278.695 43.8059 278.509C43.6854 278.324 43.5084 278.183 43.3011 278.106C43.0937 278.03 42.8673 278.023 42.6554 278.085C42.4436 278.148 42.2577 278.278 42.1254 278.455C42.0808 278.517 42.0434 278.584 42.014 278.655C41.8141 279.116 41.4514 279.488 40.9951 279.698C40.5388 279.909 40.0209 279.944 39.5403 279.797C39.4659 279.775 39.3893 279.76 39.3118 279.753C39.0913 279.739 38.8722 279.796 38.6869 279.917C38.5017 280.037 38.3604 280.214 38.284 280.421C38.2076 280.629 38.2002 280.855 38.2629 281.067C38.3256 281.279 38.4551 281.465 38.6321 281.597C38.6936 281.645 38.7611 281.684 38.8327 281.714C39.293 281.915 39.6636 282.278 39.8741 282.734C40.0846 283.19 40.1205 283.707 39.9748 284.188C39.952 284.261 39.937 284.335 39.9303 284.411C39.9147 284.632 39.9711 284.852 40.0911 285.038C40.211 285.225 40.3881 285.367 40.5958 285.444C40.8034 285.521 41.0305 285.529 41.243 285.466C41.4554 285.404 41.6419 285.274 41.7744 285.096C41.8202 285.033 41.8576 284.963 41.8858 284.89C42.0907 284.434 42.4555 284.069 42.9113 283.864C43.3671 283.658 43.8823 283.627 44.3595 283.776C44.4339 283.799 44.5105 283.814 44.588 283.82C44.8085 283.835 45.0276 283.777 45.2129 283.657C45.3981 283.536 45.5394 283.359 45.6158 283.152C45.6922 282.945 45.6996 282.718 45.6369 282.506C45.5742 282.294 45.4447 282.108 45.2677 281.976C45.2074 281.921 45.14 281.874 45.0671 281.837Z" fill="#4D8AF0"/>
<path opacity="0.5" d="M14.424 97.4039C13.9688 97.1981 13.6044 96.8332 13.3992 96.3776C13.194 95.9221 13.1622 95.4073 13.3097 94.93C13.3331 94.8557 13.3481 94.7791 13.3543 94.7015C13.3685 94.481 13.3111 94.2618 13.1907 94.0766C13.0702 93.8913 12.8931 93.75 12.6858 93.6736C12.4785 93.5971 12.2521 93.5897 12.0402 93.6525C11.8284 93.7152 11.6424 93.8447 11.5102 94.0217C11.4656 94.0842 11.4282 94.1515 11.3987 94.2223C11.1988 94.6835 10.8361 95.0549 10.3798 95.2656C9.92354 95.4763 9.40565 95.5115 8.92502 95.3646C8.85064 95.3418 8.77408 95.3269 8.69659 95.32C8.4761 95.3058 8.25692 95.3632 8.0717 95.4837C7.88648 95.6041 7.74513 95.7812 7.66872 95.9886C7.59231 96.1959 7.58493 96.4224 7.64766 96.6343C7.7104 96.8461 7.8399 97.0321 8.01688 97.1643C8.07842 97.2118 8.14583 97.2512 8.21745 97.2814C8.67776 97.4823 9.04833 97.8451 9.25886 98.3012C9.46939 98.7572 9.50524 99.2746 9.35959 99.7553C9.33674 99.8278 9.3218 99.9025 9.31502 99.9782C9.29944 100.199 9.35586 100.419 9.47583 100.606C9.59581 100.792 9.77288 100.934 9.98054 101.011C10.1882 101.089 10.4153 101.096 10.6277 101.034C10.8402 100.971 11.0267 100.841 11.1592 100.664C11.2049 100.6 11.2424 100.531 11.2706 100.457C11.4754 100.001 11.8402 99.6361 12.296 99.4308C12.7518 99.2254 13.267 99.1942 13.7443 99.343C13.8187 99.3658 13.8952 99.3807 13.9727 99.3876C14.1932 99.4018 14.4124 99.3444 14.5976 99.2239C14.7828 99.1034 14.9242 98.9263 15.0006 98.719C15.077 98.5117 15.0844 98.2852 15.0217 98.0733C14.9589 97.8615 14.8294 97.6755 14.6525 97.5432C14.5837 97.4857 14.5067 97.4388 14.424 97.4039Z" fill="#4D8AF0"/>
<path opacity="0.5" d="M352.61 3.79453C352.154 3.58872 351.79 3.22378 351.585 2.76824C351.38 2.3127 351.348 1.79791 351.495 1.32057C351.519 1.24634 351.534 1.1697 351.54 1.09212C351.554 0.871607 351.497 0.652403 351.376 0.467164C351.256 0.281925 351.079 0.140567 350.871 0.0641479C350.664 -0.012271 350.438 -0.0196589 350.226 0.0430837C350.014 0.105826 349.828 0.235341 349.696 0.412333C349.651 0.474766 349.614 0.542061 349.584 0.612925C349.379 1.06899 349.015 1.43421 348.559 1.63955C348.103 1.84489 347.588 1.87611 347.111 1.72732C347.036 1.70453 346.96 1.68959 346.882 1.68275C346.642 1.63236 346.392 1.66981 346.177 1.78827C345.962 1.90673 345.797 2.09835 345.711 2.32833C345.625 2.55831 345.625 2.81137 345.71 3.04156C345.795 3.27176 345.96 3.4638 346.175 3.5828C346.236 3.63027 346.303 3.6696 346.375 3.69981C346.83 3.90562 347.195 4.27056 347.4 4.7261C347.605 5.18164 347.637 5.69643 347.489 6.17377C347.467 6.24624 347.452 6.32097 347.445 6.39665C347.421 6.62609 347.476 6.85677 347.6 7.05141C347.723 7.24605 347.909 7.39327 348.127 7.4693C348.344 7.54532 348.581 7.5457 348.799 7.47036C349.017 7.39503 349.204 7.24839 349.328 7.05415C349.374 6.99046 349.411 6.92118 349.439 6.84798C349.644 6.39191 350.009 6.02669 350.465 5.82136C350.921 5.61602 351.436 5.58479 351.913 5.73358C351.988 5.75638 352.064 5.77132 352.142 5.77816C352.362 5.79238 352.581 5.73498 352.766 5.61451C352.952 5.49404 353.093 5.31694 353.169 5.10961C353.246 4.90228 353.253 4.6758 353.19 4.46393C353.128 4.25206 352.998 4.06612 352.821 3.93383C352.758 3.87767 352.686 3.83078 352.61 3.79453Z" fill="#4D8AF0"/>
<g opacity="0.5">
<path opacity="0.5" d="M62.9576 143.674H61.2861V153.146H62.9576V143.674Z" fill="#47E6B1"/>
<path opacity="0.5" d="M66.8574 149.246V147.574H57.386V149.246H66.8574Z" fill="#47E6B1"/>
</g>
<g opacity="0.5">
<path opacity="0.5" d="M464.1 99.0978H462.429V108.57H464.1V99.0978Z" fill="#47E6B1"/>
<path opacity="0.5" d="M468 104.67V102.998H458.529V104.67H468Z" fill="#47E6B1"/>
</g>
<g opacity="0.5">
<path opacity="0.5" d="M408.386 254.556H406.715V264.029H408.386V254.556Z" fill="#47E6B1"/>
<path opacity="0.5" d="M412.286 260.128V258.457H402.815V260.128H412.286Z" fill="#47E6B1"/>
</g>
<path opacity="0.5" d="M402.815 48.9499C404.661 48.9499 406.157 47.4531 406.157 45.6067C406.157 43.7603 404.661 42.2635 402.815 42.2635C400.968 42.2635 399.472 43.7603 399.472 45.6067C399.472 47.4531 400.968 48.9499 402.815 48.9499Z" fill="#F55F44"/>
<path opacity="0.5" d="M3.34286 10.5032C5.18907 10.5032 6.68571 9.00641 6.68571 7.16001C6.68571 5.31362 5.18907 3.81682 3.34286 3.81682C1.49665 3.81682 0 5.31362 0 7.16001C0 9.00641 1.49665 10.5032 3.34286 10.5032Z" fill="#F55F44"/>
<path opacity="0.5" d="M103.629 202.737C105.475 202.737 106.972 201.24 106.972 199.394C106.972 197.547 105.475 196.05 103.629 196.05C101.783 196.05 100.286 197.547 100.286 199.394C100.286 201.24 101.783 202.737 103.629 202.737Z" fill="#F55F44"/>
<path opacity="0.05" d="M130.372 89.9486C140.833 89.9486 149.314 88.2023 149.314 86.0482C149.314 83.8941 140.833 82.1478 130.372 82.1478C119.91 82.1478 111.429 83.8941 111.429 86.0482C111.429 88.2023 119.91 89.9486 130.372 89.9486Z" fill="black"/>
<path opacity="0.05" d="M130.372 119.48C140.833 119.48 149.314 117.734 149.314 115.58C149.314 113.426 140.833 111.679 130.372 111.679C119.91 111.679 111.429 113.426 111.429 115.58C111.429 117.734 119.91 119.48 130.372 119.48Z" fill="black"/>
<path opacity="0.05" d="M345.986 89.9486C356.448 89.9486 364.929 88.2023 364.929 86.0482C364.929 83.8941 356.448 82.1478 345.986 82.1478C335.524 82.1478 327.043 83.8941 327.043 86.0482C327.043 88.2023 335.524 89.9486 345.986 89.9486Z" fill="black"/>
<path opacity="0.05" d="M345.986 119.48C356.448 119.48 364.929 117.734 364.929 115.58C364.929 113.426 356.448 111.679 345.986 111.679C335.524 111.679 327.043 113.426 327.043 115.58C327.043 117.734 335.524 119.48 345.986 119.48Z" fill="black"/>
<path opacity="0.05" d="M240.686 73.2326C251.148 73.2326 259.629 71.4864 259.629 69.3323C259.629 67.1781 251.148 65.4319 240.686 65.4319C230.224 65.4319 221.743 67.1781 221.743 69.3323C221.743 71.4864 230.224 73.2326 240.686 73.2326Z" fill="black"/>
<path opacity="0.05" d="M254.615 32.5571C265.077 32.5571 273.558 30.8109 273.558 28.6567C273.558 26.5026 265.077 24.7563 254.615 24.7563C244.153 24.7563 235.672 26.5026 235.672 28.6567C235.672 30.8109 244.153 32.5571 254.615 32.5571Z" fill="black"/>
<path opacity="0.05" d="M218.4 49.2731C228.862 49.2731 237.343 47.5268 237.343 45.3727C237.343 43.2186 228.862 41.4723 218.4 41.4723C207.938 41.4723 199.457 43.2186 199.457 45.3727C199.457 47.5268 207.938 49.2731 218.4 49.2731Z" fill="black"/>
<path opacity="0.05" d="M288.042 56.5167C298.504 56.5167 306.985 54.7704 306.985 52.6163C306.985 50.4622 298.504 48.7159 288.042 48.7159C277.581 48.7159 269.1 50.4622 269.1 52.6163C269.1 54.7704 277.581 56.5167 288.042 56.5167Z" fill="black"/>
<path opacity="0.05" d="M240.686 131.181C251.148 131.181 259.629 129.435 259.629 127.281C259.629 125.127 251.148 123.381 240.686 123.381C230.224 123.381 221.743 125.127 221.743 127.281C221.743 129.435 230.224 131.181 240.686 131.181Z" fill="black"/>
</g>
<defs>
<linearGradient id="paint0_linear" x1="240.686" y1="136.948" x2="240.686" y2="10.5032" gradientUnits="userSpaceOnUse">
<stop stop-color="#808080" stop-opacity="0.25"/>
<stop offset="0.54" stop-color="#808080" stop-opacity="0.12"/>
<stop offset="1" stop-color="#808080" stop-opacity="0.1"/>
</linearGradient>
<linearGradient id="paint1_linear" x1="-26240.6" y1="191819" x2="-20349.7" y2="174332" gradientUnits="userSpaceOnUse">
<stop stop-color="#808080" stop-opacity="0.25"/>
<stop offset="0.54" stop-color="#808080" stop-opacity="0.12"/>
<stop offset="1" stop-color="#808080" stop-opacity="0.1"/>
</linearGradient>
<linearGradient id="paint2_linear" x1="-22820.5" y1="153191" x2="-16929.5" y2="135704" gradientUnits="userSpaceOnUse">
<stop stop-color="#808080" stop-opacity="0.25"/>
<stop offset="0.54" stop-color="#808080" stop-opacity="0.12"/>
<stop offset="1" stop-color="#808080" stop-opacity="0.1"/>
</linearGradient>
<linearGradient id="paint3_linear" x1="142648" y1="22321.8" x2="142648" y2="8966.19" gradientUnits="userSpaceOnUse">
<stop stop-color="#808080" stop-opacity="0.25"/>
<stop offset="0.54" stop-color="#808080" stop-opacity="0.12"/>
<stop offset="1" stop-color="#808080" stop-opacity="0.1"/>
</linearGradient>
<clipPath id="clip0">
<rect width="468" height="405" fill="white"/>
</clipPath>
</defs>
</svg>
