<svg width="698" height="451" viewBox="0 0 698 451" fill="none" xmlns="http://www.w3.org/2000/svg">
<g clip-path="url(#clip0)">
<path opacity="0.1" d="M697.999 289.667C698.011 301.886 696.604 314.061 693.809 325.922C692.869 329.919 691.777 333.833 690.532 337.663C689.01 342.391 687.245 347.03 685.246 351.558C684.239 353.849 683.174 356.094 682.052 358.294C682.07 370.824 679.614 383.222 674.84 394.705C666.208 415.307 650.817 431.965 631.472 441.643C619.376 447.706 606.157 450.894 592.756 450.981H132.503C112.026 451.027 91.9017 445.376 74.1774 434.603L73.9048 434.441C71.3803 432.889 68.9189 431.245 66.5208 429.51C61.1251 425.595 56.0557 421.205 51.3675 416.388C45.0219 409.874 39.4304 402.596 34.7089 394.705C23.6198 376.209 17.7453 354.791 17.7659 332.932C6.53576 312.233 -0.0126953 287.438 -0.0126953 260.794C-0.0126953 227.178 10.3937 196.512 27.4908 173.298C31.0552 168.448 34.9596 163.885 39.1714 159.646C43.327 155.452 47.7937 151.611 52.529 148.161C56.3176 145.397 60.2772 142.901 64.3814 140.69C66.0941 139.775 67.8127 138.91 69.5609 138.107C71.0958 137.391 72.6485 136.725 74.2189 136.096C76.1035 135.345 78.0117 134.654 79.9436 134.023C81.8756 133.392 83.7818 132.84 85.6624 132.367C88.428 131.658 91.2409 131.081 94.1013 130.637C96.4718 130.269 98.8423 130.014 101.213 129.821C103.097 129.672 105 129.591 106.914 129.566H107.951C110.061 129.566 112.158 129.653 114.239 129.802C114.458 129.342 114.695 128.875 114.914 128.42C115.744 126.758 116.603 125.102 117.468 123.484C117.466 123.469 117.466 123.455 117.468 123.44C117.616 123.154 117.765 122.874 117.919 122.6C118.618 121.274 119.347 119.96 120.094 118.659C120.437 118.037 120.775 117.452 121.125 116.866C121.199 116.721 121.28 116.58 121.368 116.443C121.723 115.821 122.085 115.198 122.452 114.576C124.281 111.504 126.184 108.487 128.159 105.524L128.663 104.765C128.971 104.304 129.256 103.856 129.599 103.395C130.417 102.194 131.259 100.986 132.106 99.803C132.699 98.9564 133.291 98.116 133.931 97.3129C135.472 95.2379 137.052 93.1628 138.672 91.0877C140.292 89.0126 141.975 86.9645 143.721 84.9434C143.958 84.6633 144.196 84.3893 144.444 84.1154L146.975 81.2145C147.099 81.0775 147.206 80.953 147.325 80.8285C147.627 80.4861 147.917 80.1437 148.243 79.8138C149.6 78.3011 150.993 76.8194 152.391 75.3441C159.509 67.8971 167.092 60.9571 175.089 54.5704C175.403 54.309 175.723 54.06 176.037 53.811C177.542 52.6219 179.071 51.4454 180.6 50.2875C189.01 43.9498 197.801 38.1899 206.918 33.0436C207.547 32.6638 208.187 32.309 208.833 31.9604C217.006 27.4179 225.413 23.3528 234.013 19.7838C238.701 17.8353 243.495 16.0051 248.319 14.3305C251.531 13.2224 254.755 12.1703 258.02 11.1805C263.125 9.63665 268.265 8.25257 273.44 7.02828C288.688 3.43435 304.2 1.21425 319.807 0.392167C324.548 0.139008 329.342 0.00827934 334.19 -2.09773e-05C357.58 -0.0325503 380.88 3.06346 403.526 9.21333C403.76 9.58504 404.081 9.88806 404.457 10.0939C404.833 10.2997 405.253 10.4016 405.677 10.3899H407.669C408.534 10.6389 409.393 10.8879 410.258 11.1494C415.09 12.6102 419.853 14.206 424.546 15.9366L425.732 16.3848C437.316 20.7119 448.587 25.9132 459.458 31.9479C469.257 37.3748 478.691 43.4981 487.696 50.275C489.083 51.3209 490.45 52.375 491.797 53.4374C493.433 52.3377 495.096 51.2835 496.787 50.275C503.317 46.3683 510.253 43.2623 517.457 41.0181C532.521 36.3356 548.459 35.6808 563.824 39.1132C583.529 43.502 601.367 54.3961 615.773 69.8908C621.639 76.2304 626.861 83.1946 631.353 90.6706C631.679 91.206 632.005 91.7476 632.319 92.2954C636.18 98.9122 639.499 105.862 642.24 113.069C642.34 113.337 642.441 113.586 642.53 113.847C645.06 120.596 647.1 127.536 648.634 134.608C648.705 134.969 648.788 135.324 648.859 135.685C650.293 142.53 651.268 149.471 651.775 156.459C651.775 156.708 651.775 156.963 651.822 157.225C652.071 160.839 652.198 164.492 652.201 168.181C652.201 171.48 652.095 174.755 651.899 178.005C651.899 178.359 651.852 178.727 651.822 179.094C651.769 180.034 651.692 180.962 651.615 181.908C656.141 185.743 660.377 189.941 664.285 194.464C666.012 196.444 667.683 198.498 669.299 200.627C674.22 207.107 678.546 214.063 682.218 221.401C692.239 241.272 697.999 264.647 697.999 289.667Z" fill="#871E99"/>
<path opacity="0.1" d="M631.034 439.34C631.034 443.592 617.089 447.576 592.756 451H132.504C112.026 451.046 91.9021 445.395 74.1779 434.621L73.9053 434.46C80.8982 431.783 93.521 429.286 110.701 427.033L111.471 426.933C119.176 425.943 127.786 425.003 137.197 424.113C137.434 424.113 137.677 424.076 137.914 424.045C145.381 423.348 153.324 422.694 161.743 422.084C162.01 422.084 162.271 422.034 162.538 422.022C165.785 421.777 169.1 421.544 172.482 421.324L173.785 421.237C198.409 419.631 226.398 418.349 256.752 417.502H256.788C261.039 417.377 265.335 417.268 269.677 417.172C274.505 417.052 279.392 416.946 284.339 416.855C288.114 416.767 291.936 416.705 295.77 416.643H295.859C313.158 416.369 331.031 416.232 349.308 416.232C394.501 416.232 437.217 417.097 475.068 418.654H475.174C480.994 418.89 486.707 419.152 492.277 419.419L497.018 419.656C503.304 419.971 509.428 420.31 515.39 420.671C585.497 424.86 631.034 431.664 631.034 439.34Z" fill="#871E99"/>
<g opacity="0.2">
<path opacity="0.2" d="M403.148 413.375C403.129 414.046 403.055 414.715 402.928 415.373C398.804 414.684 394.655 414.062 390.483 413.505C390.483 413.331 390.483 413.151 390.483 412.97C390.522 411.103 391.033 409.281 391.965 407.691C393.186 405.662 395.041 404.392 397.085 404.46C399.13 404.529 400.902 405.917 401.998 408.015C402.827 409.663 403.224 411.513 403.148 413.375Z" fill="#3F3D56"/>
<path opacity="0.2" d="M403.488 402.737C403.633 397.922 400.912 393.925 397.412 393.809C393.912 393.693 390.957 397.502 390.812 402.316C390.667 407.13 393.387 411.127 396.888 411.244C400.388 411.36 403.343 407.551 403.488 402.737Z" fill="#3F3D56"/>
<path opacity="0.2" d="M403.811 392.079C403.956 387.265 401.236 383.268 397.735 383.151C394.235 383.035 391.28 386.844 391.135 391.658C390.99 396.473 393.711 400.47 397.211 400.586C400.711 400.702 403.666 396.893 403.811 392.079Z" fill="#3F3D56"/>
<path opacity="0.2" d="M404.128 381.421C404.273 376.607 401.553 372.61 398.053 372.493C394.552 372.377 391.597 376.186 391.453 381C391.308 385.815 394.028 389.812 397.528 389.928C401.029 390.044 403.984 386.235 404.128 381.421Z" fill="#3F3D56"/>
<path opacity="0.2" d="M404.446 370.763C404.591 365.949 401.87 361.952 398.37 361.836C394.87 361.719 391.915 365.528 391.77 370.342C391.625 375.157 394.345 379.154 397.846 379.27C401.346 379.386 404.301 375.578 404.446 370.763Z" fill="#3F3D56"/>
<path opacity="0.2" d="M376.539 296.813C375.704 295.626 374.952 294.378 374.287 293.078L391.034 290.756L373.007 290.302C371.398 286.293 370.584 281.982 370.616 277.632C370.648 273.282 371.524 268.985 373.19 265.002L396.966 278.978L375.187 261.024C377.385 257.292 380.291 254.075 383.724 251.575C387.158 249.075 391.046 247.346 395.144 246.495C399.243 245.644 403.464 245.69 407.545 246.63C411.626 247.57 415.478 249.384 418.862 251.958C422.245 254.532 425.087 257.812 427.21 261.592C429.333 265.372 430.691 269.571 431.199 273.927C431.708 278.283 431.356 282.702 430.165 286.909C428.975 291.115 426.971 295.019 424.28 298.376C425.578 300.222 426.681 302.211 427.569 304.308L405.589 315.389L428.897 308.025C430.365 313.112 430.601 318.504 429.585 323.712C428.569 328.92 426.332 333.779 423.077 337.85C426.461 342.673 428.485 348.399 428.917 354.373C429.348 360.347 428.171 366.328 425.519 371.633C422.867 376.937 418.848 381.35 413.921 384.368C408.993 387.386 403.357 388.886 397.657 388.697C391.956 388.508 386.421 386.638 381.684 383.3C376.948 379.963 373.201 375.292 370.873 369.823C368.544 364.353 367.728 358.306 368.517 352.373C369.306 346.439 371.669 340.858 375.336 336.269C371.293 330.505 369.212 323.481 369.427 316.326C369.642 309.17 372.14 302.298 376.521 296.813H376.539Z" fill="#871E99"/>
<path opacity="0.1" d="M430.189 318.34C429.981 325.5 427.475 332.376 423.077 337.85C426.461 342.673 428.485 348.399 428.917 354.373C429.348 360.347 428.171 366.328 425.519 371.633C422.867 376.937 418.848 381.35 413.921 384.368C408.993 387.386 403.357 388.886 397.656 388.697C391.956 388.508 386.421 386.638 381.684 383.3C376.948 379.963 373.201 375.292 370.873 369.823C368.544 364.353 367.728 358.306 368.517 352.373C369.306 346.439 371.669 340.858 375.336 336.269C371.442 330.71 430.295 314.761 430.189 318.34Z" fill="black"/>
</g>
<g opacity="0.2">
<path opacity="0.2" d="M313.07 413.375C313.051 414.046 312.977 414.715 312.85 415.373C308.726 414.684 304.577 414.062 300.405 413.505C300.405 413.331 300.405 413.151 300.405 412.97C300.444 411.103 300.955 409.281 301.887 407.691C303.108 405.662 304.963 404.392 307.007 404.46C309.052 404.529 310.824 405.917 311.92 408.015C312.749 409.663 313.146 411.513 313.07 413.375Z" fill="#3F3D56"/>
<path opacity="0.2" d="M313.403 402.739C313.548 397.925 310.828 393.928 307.327 393.812C303.827 393.696 300.872 397.504 300.727 402.319C300.582 407.133 303.302 411.13 306.803 411.246C310.303 411.362 313.258 407.554 313.403 402.739Z" fill="#3F3D56"/>
<path opacity="0.2" d="M313.726 392.082C313.871 387.267 311.151 383.27 307.65 383.154C304.15 383.038 301.195 386.846 301.05 391.661C300.905 396.475 303.626 400.472 307.126 400.588C310.626 400.705 313.581 396.896 313.726 392.082Z" fill="#3F3D56"/>
<path opacity="0.2" d="M314.043 381.424C314.188 376.609 311.468 372.612 307.968 372.496C304.468 372.38 301.513 376.188 301.368 381.003C301.223 385.817 303.943 389.814 307.443 389.93C310.944 390.047 313.899 386.238 314.043 381.424Z" fill="#3F3D56"/>
<path opacity="0.2" d="M314.362 370.766C314.507 365.951 311.786 361.954 308.286 361.838C304.786 361.722 301.831 365.531 301.686 370.345C301.541 375.159 304.261 379.156 307.762 379.273C311.262 379.389 314.217 375.58 314.362 370.766Z" fill="#3F3D56"/>
<path opacity="0.2" d="M286.461 296.813C285.626 295.626 284.873 294.378 284.209 293.078L300.956 290.756L282.929 290.302C281.32 286.293 280.506 281.982 280.538 277.632C280.569 273.282 281.445 268.985 283.112 265.002L306.888 278.978L285.109 261.024C287.306 257.292 290.213 254.075 293.646 251.575C297.08 249.075 300.967 247.346 305.066 246.495C309.164 245.644 313.386 245.69 317.467 246.63C321.548 247.57 325.4 249.384 328.784 251.958C332.167 254.532 335.009 257.812 337.132 261.592C339.255 265.372 340.613 269.571 341.121 273.927C341.63 278.283 341.278 282.702 340.087 286.909C338.897 291.115 336.893 295.019 334.202 298.376C335.5 300.222 336.603 302.211 337.491 304.308L315.511 315.389L338.819 308.025C340.286 313.112 340.523 318.504 339.507 323.712C338.491 328.92 336.254 333.779 332.999 337.85C336.383 342.673 338.407 348.399 338.838 354.373C339.27 360.347 338.093 366.328 335.441 371.633C332.789 376.937 328.77 381.35 323.843 384.368C318.915 387.386 313.279 388.886 307.578 388.697C301.878 388.508 296.343 386.638 291.606 383.3C286.87 379.963 283.123 375.292 280.794 369.823C278.466 364.353 277.65 358.306 278.439 352.373C279.228 346.439 281.591 340.858 285.258 336.269C281.215 330.505 279.134 323.481 279.349 316.326C279.564 309.17 282.062 302.298 286.443 296.813H286.461Z" fill="#871E99"/>
<path opacity="0.1" d="M340.11 318.34C339.903 325.5 337.397 332.376 332.999 337.85C336.383 342.673 338.407 348.399 338.838 354.373C339.27 360.347 338.093 366.328 335.441 371.633C332.789 376.937 328.77 381.35 323.843 384.368C318.915 387.386 313.279 388.886 307.578 388.697C301.878 388.508 296.343 386.638 291.606 383.3C286.87 379.963 283.123 375.292 280.794 369.823C278.466 364.353 277.65 358.306 278.439 352.373C279.228 346.439 281.591 340.858 285.258 336.269C281.364 330.71 340.217 314.761 340.11 318.34Z" fill="black"/>
</g>
<g opacity="0.2">
<path opacity="0.2" d="M559.125 420.185C559.08 421.457 558.935 422.723 558.693 423.97C550.751 422.638 542.753 421.447 534.697 420.397C534.697 420.061 534.697 419.718 534.697 419.37C534.772 415.775 535.758 412.266 537.554 409.204C539.924 405.301 543.48 402.854 547.409 402.979C551.338 403.103 554.757 405.786 556.891 409.826C558.5 413.009 559.271 416.585 559.125 420.185Z" fill="#3F3D56"/>
<path opacity="0.2" d="M559.77 399.689C560.049 390.418 554.81 382.721 548.067 382.497C541.325 382.273 535.634 389.608 535.355 398.879C535.076 408.15 540.315 415.848 547.057 416.071C553.8 416.295 559.491 408.961 559.77 399.689Z" fill="#3F3D56"/>
<path opacity="0.2" d="M560.385 379.171C560.664 369.899 555.425 362.202 548.683 361.978C541.941 361.754 536.249 369.089 535.97 378.36C535.691 387.632 540.93 395.329 547.673 395.553C554.415 395.777 560.107 388.442 560.385 379.171Z" fill="#3F3D56"/>
<path opacity="0.2" d="M561.008 358.652C561.286 349.381 556.047 341.684 549.305 341.46C542.563 341.236 536.871 348.57 536.592 357.842C536.313 367.113 541.553 374.81 548.295 375.034C555.037 375.258 560.729 367.924 561.008 358.652Z" fill="#3F3D56"/>
<path opacity="0.2" d="M560.929 337.2C561.194 327.924 555.94 320.232 549.195 320.019C542.449 319.807 536.766 327.154 536.501 336.43C536.236 345.706 541.49 353.398 548.235 353.611C554.981 353.823 560.664 346.476 560.929 337.2Z" fill="#3F3D56"/>
<path opacity="0.2" d="M507.893 195.79C506.294 193.505 504.846 191.106 503.561 188.612L535.799 184.143L501.102 183.265C498.002 175.549 496.434 167.249 496.493 158.875C496.552 150.5 498.237 142.226 501.445 134.559L547.225 161.458L505.303 126.895C509.542 119.726 515.141 113.551 521.751 108.755C528.361 103.959 535.841 100.644 543.724 99.0172C551.608 97.3905 559.725 97.4869 567.572 99.3002C575.418 101.114 582.824 104.605 589.33 109.557C595.835 114.509 601.3 120.815 605.383 128.083C609.467 135.351 612.082 143.424 613.065 151.8C614.048 160.176 613.378 168.675 611.097 176.767C608.817 184.859 604.974 192.371 599.808 198.834C602.305 202.392 604.429 206.222 606.144 210.258L563.824 231.604L608.692 217.41C611.519 227.193 611.98 237.562 610.031 247.578C608.083 257.595 603.787 266.943 597.533 274.776C604.046 284.061 607.941 295.084 608.771 306.584C609.602 318.085 607.334 329.598 602.229 339.809C597.124 350.02 589.386 358.516 579.901 364.324C570.415 370.133 559.566 373.021 548.592 372.658C537.618 372.294 526.962 368.694 517.844 362.269C508.726 355.844 501.513 346.853 497.03 336.325C492.548 325.797 490.975 314.156 492.494 302.733C494.012 291.311 498.56 280.567 505.617 271.732C497.839 260.636 493.834 247.117 494.247 233.344C494.66 219.571 499.465 206.344 507.893 195.784V195.79Z" fill="#871E99"/>
<path opacity="0.1" d="M611.186 237.225C610.798 251.001 605.995 264.236 597.556 274.788C604.069 284.073 607.964 295.096 608.794 306.597C609.625 318.097 607.358 329.611 602.252 339.822C597.147 350.032 589.409 358.528 579.924 364.337C570.439 370.146 559.589 373.034 548.615 372.67C537.641 372.307 526.986 368.707 517.868 362.282C508.75 355.857 501.537 346.866 497.054 336.338C492.571 325.809 490.999 314.168 492.517 302.746C494.036 291.323 498.584 280.58 505.641 271.744C498.091 261.031 611.394 230.334 611.186 237.225Z" fill="black"/>
</g>
<path d="M93.5273 421.281L99.7439 421.262H108.509L119.591 232.152L229.338 39.7731L224.568 34.3944V20.7736L105.878 227.694L93.5273 421.281Z" fill="#F1C0C0"/>
<path opacity="0.1" d="M100.408 421.262H108.509L119.591 232.152L229.339 39.7731L224.568 34.3945L111.366 229.269L100.408 421.262Z" fill="black"/>
<path d="M75.209 422.856L359.578 445.715L359.821 445.733L635.028 427.954L635.235 427.942V415.734L331.991 409.889L78.9958 409.633H77.1468L76.9454 411.003L75.209 422.856Z" fill="#F1C0C0"/>
<path opacity="0.1" d="M75.209 422.856L359.578 445.715L359.821 445.733L635.028 427.954L635.235 427.718V415.989H634.992L359.578 425.651L78.9958 409.633H78.9543L78.4565 409.976L76.9454 411.003L75.209 422.856Z" fill="black"/>
<path opacity="0.1" d="M75.209 422.856L359.578 445.715V425.651L78.4565 409.976L76.9454 411.003L75.209 422.856Z" fill="black"/>
<path d="M224.532 34.1392L349.901 175.49L346.025 424.126L356.675 425.477L356.852 425.501H367.502L368.776 186.166L603.531 268.538L607.489 415.205L616.059 416.213L618.963 416.556L612.242 258.366L366.838 167.864L232.278 20.9168H224.532V34.1392Z" fill="#F1C0C0"/>
<path opacity="0.1" d="M367.81 181.59L368.776 186.166L603.53 268.538L607.489 415.205L616.058 416.213L609.338 265.488L367.81 181.59Z" fill="black"/>
<path opacity="0.1" d="M224.532 34.1392L349.901 175.49L346.025 424.126L356.675 425.477L359.579 167.353L224.532 20.9168V34.1392Z" fill="black"/>
<path d="M368.266 281.375L454.367 299.185L454.397 299.191L605.201 330.398L612.105 327.491L612.081 326.981L611.631 316.865L368.355 265.226L368.266 281.375Z" fill="#F1C0C0"/>
<path opacity="0.1" d="M454.397 299.191L605.201 330.398L612.105 327.491L612.082 326.981L454.397 299.191Z" fill="black"/>
<path d="M460.164 218.232L462.493 352.909L463.696 422.003L474.298 421.629L480.971 421.393L478.897 220.181L474.298 218.574L473.291 218.232H460.164Z" fill="#F1C0C0"/>
<path opacity="0.1" d="M460.259 218.201V218.232L462.493 352.909L463.696 422.003L474.298 421.629V218.201H460.259Z" fill="black"/>
<path d="M294.093 252.626C294.715 252.982 295.31 253.387 295.871 253.84C296.535 254.451 297.132 255.138 297.649 255.889C300.191 259.344 302.538 263.359 302.289 267.716C302.295 268.351 302.181 268.979 301.954 269.567C301.727 270.155 301.392 270.689 300.968 271.14C299.919 272.08 298.414 272.124 297.039 272.124C295.545 272.124 293.975 272.124 292.683 271.315C291.391 270.505 290.313 268.93 288.784 268.968C288.568 269.005 288.347 269.005 288.132 268.968C287.604 268.787 287.498 268.059 287.154 267.598C286.561 266.77 285.311 266.976 284.38 267.337C283.45 267.698 282.419 268.239 281.5 267.822C280.967 267.527 280.531 267.069 280.25 266.509C278.051 262.774 277.583 258.285 277.168 253.946C276.913 251.307 274.97 242.305 280.333 244.353C282.703 245.25 284.92 247.042 287.077 248.356L294.093 252.626Z" fill="#3F3D56"/>
<path d="M288.796 253.517C289.275 253.879 289.855 254.062 290.445 254.037C291.035 254.012 291.599 253.781 292.049 253.38C292.932 252.542 293.494 251.396 293.632 250.155C294.224 249.962 294.526 250.778 294.906 251.276C295.569 252.122 296.921 252.11 297.525 253.012C297.946 253.635 297.851 254.5 298.147 255.204C298.533 256.113 299.487 256.586 300.139 257.32C300.754 258.123 301.199 259.055 301.442 260.053L302.414 263.116C302.879 264.39 303.178 265.724 303.303 267.081C303.364 267.76 303.296 268.445 303.103 269.096C302.91 269.747 302.595 270.351 302.177 270.873C300.873 272.348 298.734 272.504 296.844 272.46C296.212 272.474 295.582 272.397 294.971 272.23C293.294 271.682 292.221 269.908 291.777 268.121C291.332 266.334 291.38 264.461 291.119 262.63C290.837 260.833 290.339 259.08 289.637 257.414C289.116 256.119 287.682 254.189 287.705 252.813C288.132 252.813 288.44 253.224 288.796 253.517Z" fill="#3F3D56"/>
<path d="M290.923 247.211C290.646 246.327 290.484 245.407 290.443 244.478C290.443 242.61 291.255 240.855 292.072 239.186L285.299 240.151C284.481 240.269 283.568 240.444 283.106 241.16C282.931 241.514 282.839 241.908 282.839 242.308C282.839 242.708 282.931 243.102 283.106 243.457C283.446 244.167 283.716 244.912 283.912 245.679C283.927 246.351 284.001 247.02 284.131 247.677C284.342 248.161 284.638 248.598 285.002 248.966C286.94 251.22 288.392 253.878 289.838 256.511C289.797 256.436 293.921 253.081 293.755 251.985C293.661 251.363 292.469 250.616 292.09 250.018C291.566 249.151 291.173 248.204 290.923 247.211Z" fill="#BE6F72"/>
<path d="M349 222.889V229.02L249.042 249.501L243.857 252.801H225.966V249.346L324.175 224.42L349 222.889Z" fill="#F1C0C0"/>
<path opacity="0.1" d="M349 229.02L249.042 249.501L243.857 252.801H225.966L324.904 230.558L349 229.02Z" fill="black"/>
<path d="M268.747 396.959C267.633 395.542 266.096 394.563 264.385 394.181C262.674 393.799 260.89 394.036 259.324 394.855C258.989 395.02 258.694 395.263 258.459 395.564C257.867 396.436 258.246 397.637 258.299 398.714C258.435 401.341 256.444 403.477 254.655 405.313C253.694 406.297 252.717 407.349 252.284 408.687C251.851 410.025 252.171 411.725 253.333 412.422C253.84 412.689 254.391 412.85 254.957 412.895C256.851 413.283 258.793 413.34 260.705 413.063C262.596 412.684 264.451 411.557 265.268 409.727C265.426 409.23 265.687 408.777 266.033 408.401C267.076 407.535 268.676 408.55 269.861 407.934C270.839 407.423 270.881 406.62 270.892 405.562C270.928 402.636 270.513 399.324 268.747 396.959Z" fill="#871E99"/>
<path d="M282.97 396.847C283.699 398.864 283.8 401.061 283.895 403.215C283.948 404.46 283.983 405.792 283.343 406.844C282.703 407.896 281.453 408.45 280.256 408.712C277.785 409.247 274.922 408.743 273.328 406.683C272.107 405.108 271.853 402.947 272.078 400.905C272.267 399.231 272.67 397.27 271.527 396.081C271.23 395.763 270.845 395.539 270.572 395.197C269.98 394.437 270.075 393.292 270.395 392.358C270.811 391.465 271.124 390.523 271.325 389.551C271.373 389.09 279.349 389.874 280.084 390.254C281.086 390.771 280.931 391.636 281.234 392.682C281.654 394.139 282.46 395.452 282.97 396.847Z" fill="#871E99"/>
<path d="M284.434 307.415C285.999 308.479 286.603 310.571 286.846 312.513C287.516 317.836 286.342 323.215 286.253 328.587C286.17 336.113 288.245 343.776 286.473 351.066C285.412 355.424 286.313 360.404 285.317 364.805C285.021 366.113 284.475 367.345 284.191 368.653C283.598 371.485 284.221 374.448 285.056 377.218C285.323 377.965 285.492 378.746 285.56 379.54C285.52 380.763 285.224 381.962 284.695 383.052L281.139 391.885C280.742 392.875 279.177 393.037 278.176 393.168C276.291 393.404 274.188 393.572 272.688 392.346C271.189 391.119 270.827 389.065 270.596 387.148C270.153 383.467 269.955 379.758 270.004 376.048C270.069 375.08 269.987 374.107 269.761 373.166C269.435 372.101 268.718 371.18 268.522 370.053C268.273 368.597 268.978 367.165 269.239 365.696C269.418 364.354 269.398 362.991 269.18 361.655C268.949 359.663 268.682 357.671 268.38 355.692C267.953 352.921 268.564 350.188 268.973 347.412C269.358 344.804 268.866 342.145 268.38 339.556C268.422 341.658 268.172 343.755 267.639 345.781C267.325 346.771 266.875 347.717 266.602 348.726C265.387 353.251 267.977 358.001 267.61 362.689C267.438 364.88 266.62 367.046 266.851 369.207C267.011 370.788 267.71 372.238 268.19 373.745C268.67 375.251 268.919 376.976 268.19 378.383C266.264 382.205 267.704 387.403 269.429 391.325C269.779 392.02 270.084 392.74 270.341 393.479C270.851 395.247 270.424 397.145 270.561 398.988C270.064 399.073 269.556 399.039 269.074 398.887C268.593 398.735 268.151 398.469 267.781 398.11C267.521 397.824 267.307 397.488 267.052 397.189C266.34 396.476 265.498 395.923 264.575 395.564C264.034 395.246 263.417 395.097 262.797 395.135C262.146 395.326 261.56 395.708 261.108 396.237C260.522 396.778 259.901 397.275 259.248 397.724C258.97 397.949 258.644 398.1 258.299 398.166C258.126 398.195 257.948 398.165 257.792 398.081C257.636 397.997 257.508 397.864 257.428 397.699C257.391 397.596 257.369 397.487 257.363 397.376C257.143 395.496 257.026 393.605 257.013 391.711C257.013 388.455 253.304 386.214 252.835 382.995C252.462 380.4 253.156 377.754 252.924 375.139C252.812 373.795 252.456 372.475 252.48 371.13C252.48 370.259 252.67 369.406 252.735 368.54C252.789 367.58 252.775 366.617 252.693 365.658L252.51 362.651C252.332 359.682 252.136 356.65 251.022 353.936C249.701 350.767 248.919 347.379 248.711 343.926C248.592 341.747 248.669 339.568 248.432 337.383C248.219 335.41 247.745 333.449 247.881 331.469C247.994 329.938 248.474 328.456 248.586 326.925C248.818 323.98 247.751 321.117 246.915 318.297C246.08 315.477 245.463 312.351 246.56 309.631C246.716 309.184 246.977 308.786 247.318 308.473C247.739 308.181 248.217 307.994 248.717 307.925C258.885 305.682 269.307 304.983 279.663 305.852C281.352 305.953 282.99 306.49 284.434 307.415Z" fill="#3F3D56"/>
<path d="M250.791 241.297C256.034 241.297 260.284 236.832 260.284 231.324C260.284 225.816 256.034 221.351 250.791 221.351C245.547 221.351 241.297 225.816 241.297 231.324C241.297 236.832 245.547 241.297 250.791 241.297Z" fill="#BE6F72"/>
<path d="M248.953 243.78C249.09 244.35 249.09 244.947 248.953 245.517C248.804 245.916 248.594 246.286 248.331 246.613C247.412 247.858 246.395 249.02 245.291 250.087C245.854 251.406 246.866 252.457 248.13 253.031C249.384 253.592 250.7 253.987 252.047 254.208C252.719 254.393 253.419 254.444 254.109 254.357C254.745 254.189 255.348 253.902 255.887 253.51L261.161 250.192C261.957 249.74 262.694 249.181 263.354 248.53C264.321 247.486 264.869 246.09 264.883 244.633C264.908 244.372 264.84 244.111 264.693 243.899C264.491 243.714 264.238 243.602 263.97 243.581C262.116 243.152 260.652 241.57 259.822 239.778C259.072 237.94 258.587 235.995 258.382 234.007L252.758 237.119C251.922 237.586 251.093 238.053 250.228 238.458C249.676 238.719 248.562 238.937 248.171 239.466C247.424 240.444 248.758 242.604 248.953 243.78Z" fill="#BE6F72"/>
<path d="M245.327 248.275C244.526 248.965 243.901 249.852 243.508 250.859C243.14 252.104 243.508 253.417 243.839 254.65C245.395 259.903 246.583 265.269 247.395 270.705C247.893 274.44 248.077 278.231 248.32 282.01C248.817 289.716 249.54 302.005 250.506 309.662C254.062 309.83 257.529 308.741 261.055 308.342C267.645 307.608 274.431 309.289 280.884 307.72C279.32 301.227 277.755 290.14 276.191 283.653C275.498 281.097 275.018 278.483 274.756 275.84C274.62 273.942 274.703 272.037 274.727 270.126C274.78 266.39 274.585 262.655 274.389 258.92C274.164 254.563 273.939 250.205 272.955 245.941C272.886 245.397 272.644 244.894 272.267 244.515C271.675 244.061 270.904 244.222 270.199 244.322C268.04 244.61 265.854 244.066 264.048 242.791C263.266 242.23 262.217 241.546 261.488 242.168C261.177 242.544 260.971 243.003 260.895 243.494C260.573 244.375 260.075 245.173 259.435 245.835C258.795 246.498 258.028 247.009 257.185 247.335C255.496 247.977 253.728 248.359 251.935 248.468C251.386 248.592 250.814 248.524 250.305 248.275C249.463 247.733 249.404 245.785 248.343 245.654C247.413 245.542 245.955 247.646 245.327 248.275Z" fill="#3F3D56"/>
<path d="M259.348 263.477C257.161 261.28 256.201 258.092 254.607 255.384C253.522 253.563 252.135 251.961 250.512 250.653C249.696 250.087 248.948 249.42 248.284 248.667C247.721 247.939 247.294 246.968 246.441 246.688C246.088 246.607 245.722 246.618 245.374 246.718C245.027 246.819 244.707 247.007 244.444 247.267C243.921 247.79 243.427 248.342 242.962 248.922C240.45 251.655 236.034 252.035 234.043 255.198C233.506 255.868 233.141 256.672 232.983 257.532C232.409 262.135 233.542 266.793 236.147 270.543C236.651 271.412 237.426 272.072 238.34 272.41C238.216 273.571 238.362 274.746 238.766 275.834C239.864 279.774 241.212 283.632 242.802 287.382C242.422 288.849 242.156 290.346 242.008 291.858C241.593 295.662 241.978 299.521 241.587 303.331C241.267 306.444 240.402 309.475 240.372 312.594C240.372 313.092 240.414 313.684 240.823 313.939C241.04 314.056 241.284 314.11 241.528 314.095L248.817 314.325C253.049 314.456 257.321 314.586 261.488 313.765C262.042 313.678 262.58 313.5 263.082 313.235C264.492 312.407 264.96 310.54 265.185 308.878C265.48 306.722 265.597 304.543 265.535 302.366C266.418 305.298 267.467 308.33 270.134 309.6C271.544 310.272 273.156 310.222 274.703 310.179C278.037 310.023 281.359 309.663 284.653 309.102C284.856 309.128 285.062 309.105 285.255 309.032C285.447 308.96 285.621 308.841 285.762 308.686C285.904 308.53 286.008 308.342 286.068 308.137C286.127 307.931 286.14 307.714 286.105 307.502L286.141 304.103C286.212 297.199 284.582 290.6 283.948 283.728C283.746 281.561 283.764 279.37 283.26 277.247C283.053 276.357 282.751 275.486 282.567 274.589C282.409 273.711 282.31 272.823 282.271 271.931L281.808 265.083C281.589 261.915 281.275 258.858 281.044 255.696C280.917 252.616 280.492 249.558 279.776 246.569C279.26 244.702 278.188 242.585 276.333 242.355C275.343 242.237 274.383 242.691 273.441 243.008C271.125 243.774 268.639 243.764 266.329 242.977C265.616 242.681 264.872 242.472 264.113 242.355C263.731 242.3 263.342 242.353 262.986 242.509C262.629 242.664 262.319 242.916 262.086 243.239C261.856 243.725 261.748 244.265 261.772 244.808C261.493 251.027 260.978 257.432 259.348 263.477Z" fill="#871E99"/>
<path d="M249.813 263.664C247.081 260.638 244.278 257.557 240.758 255.633C239.371 254.874 237.795 254.301 236.26 254.587C234.725 254.874 233.297 256.274 233.368 257.912C233.415 258.926 234.002 259.823 234.186 260.819C234.399 261.939 234.091 263.135 234.423 264.218C234.692 264.932 235.095 265.581 235.608 266.129L239.804 271.352C241.581 273.531 243.359 275.741 245.647 277.247C247.934 278.754 250.897 279.457 253.41 278.387C255.198 277.514 256.684 276.08 257.665 274.284C258.708 272.541 259.443 270.636 260.421 268.837C261.943 265.962 263.951 263.403 266.347 261.286C265.114 260.95 263.568 260.477 262.791 259.418C262.57 259.082 262.382 258.723 262.228 258.347L261.268 256.169C260.942 256.151 260.615 256.204 260.309 256.325C260.003 256.446 259.725 256.632 259.49 256.872C259.079 257.372 258.637 257.844 258.169 258.285C257.333 258.945 256.201 259.126 255.443 259.879C255.149 260.202 254.884 260.552 254.649 260.925C254.075 261.717 253.347 262.371 252.513 262.843C251.679 263.316 250.758 263.596 249.813 263.664Z" fill="#3F3D56"/>
<path d="M266.566 250.647C268.623 246.706 268.528 241.981 269.115 237.53C269.178 236.352 269.572 235.219 270.247 234.274C271.432 232.868 273.524 232.849 275.313 233.029C275.841 233.092 276.499 233.353 276.469 233.907C276.427 234.106 276.335 234.289 276.202 234.436C274.468 236.788 273.448 239.634 273.275 242.604C274.205 243.282 275.645 241.888 276.54 242.604C277.133 243.127 276.86 244.16 276.505 244.907C275.679 246.638 274.827 248.356 273.95 250.062C273.25 251.565 272.337 252.948 271.242 254.164C270.49 254.924 269.607 255.521 268.842 256.268C267.064 258.018 265.992 260.489 264.154 262.195C263.999 262.371 263.789 262.484 263.562 262.512C263.328 262.495 263.108 262.391 262.94 262.22C262.022 261.435 261.261 260.469 260.699 259.375C260 258.018 260.107 257.619 261.209 256.66C263.271 254.948 265.28 253.112 266.566 250.647Z" fill="#BE6F72"/>
<path d="M246.375 260.987C246.731 261.217 247.17 261.479 247.561 261.286C247.721 261.184 247.856 261.046 247.958 260.881C248.635 259.931 249.2 258.899 249.641 257.806C249.717 257.652 249.759 257.481 249.765 257.308C249.765 256.909 249.427 256.617 249.113 256.387C247.43 255.26 245.621 254.356 243.726 253.697C242.162 253.075 240.526 252.533 238.867 252.689C238.244 252.733 237.635 252.909 237.078 253.206C236.521 253.504 236.027 253.916 235.625 254.419C234.44 256.019 236.425 256.505 237.67 257.084C240.55 258.46 243.667 259.256 246.375 260.987Z" fill="#871E99"/>
<path opacity="0.1" d="M244.509 271.57C244.489 271.712 244.501 271.857 244.545 271.993C244.588 272.13 244.661 272.253 244.758 272.354C244.93 271.47 244.705 270.536 244.883 269.646C245.144 268.308 246.382 267.299 246.489 265.955C244.219 265.488 244.527 270.126 244.509 271.57Z" fill="black"/>
<path opacity="0.2" d="M349.001 222.889V229.02L324.905 230.558L324.176 224.42L349.001 222.889Z" fill="black"/>
<path d="M242.245 232.805C243.75 231.517 242.879 228.815 243.899 227.084C244.491 226.138 245.493 225.64 246.477 225.217C247.664 224.633 248.936 224.263 250.24 224.121C250.893 224.055 251.551 224.145 252.167 224.383C252.783 224.621 253.339 225.002 253.795 225.497C254.181 225.958 254.441 226.518 254.803 226.997C255.251 227.556 255.834 227.978 256.491 228.217C257.149 228.456 257.855 228.503 258.536 228.354C259.325 228.168 260.142 227.539 260.089 226.692C260 226.177 259.75 225.708 259.378 225.36L257.683 223.387C255.757 221.145 253.618 218.767 250.791 218.207C248.823 217.815 246.808 218.369 244.912 219.035C244.148 219.303 243.288 219.701 243.075 220.517C242.933 221.077 243.146 221.687 243.022 222.254C242.779 223.38 241.404 223.76 240.764 224.706C240.124 225.653 240.319 226.773 240.135 227.819C239.952 228.865 239.418 229.886 239.353 230.969C239.312 231.623 239.626 232.836 240.325 233.073C241.024 233.31 241.813 232.027 242.245 232.805Z" fill="#3F3D56"/>
<path d="M259.515 225.796C259.015 223.057 257.938 220.47 256.362 218.226C254.961 216.129 253.011 214.503 250.75 213.544C249.619 213.08 248.403 212.891 247.193 212.992C245.983 213.092 244.81 213.479 243.763 214.123C242.208 215.289 240.998 216.892 240.272 218.749C238.737 222.222 238.168 226.468 239.952 229.805C240.663 228.896 241.884 229.307 242.963 228.977C244.314 228.572 245.458 227.626 246.744 227.035C250.625 225.235 255.366 226.692 259.515 225.796Z" fill="#FED253"/>
<path opacity="0.1" d="M240.858 225.603C240.722 224.482 240.633 223.181 241.392 222.384C241.429 222.335 241.477 222.297 241.532 222.271C241.586 222.245 241.646 222.232 241.706 222.235C241.759 222.253 241.807 222.282 241.849 222.321C241.891 222.359 241.925 222.406 241.949 222.459C242.387 223.185 242.76 223.952 243.063 224.75C242.621 224.643 242.159 224.678 241.737 224.85C241.314 225.022 240.95 225.323 240.692 225.715" fill="black"/>
<path opacity="0.1" d="M254.708 222.44L254.495 220.218C254.46 220.035 254.475 219.845 254.536 219.67C254.626 219.523 254.764 219.417 254.923 219.371C255.083 219.325 255.254 219.343 255.402 219.421C255.693 219.591 255.933 219.843 256.095 220.149C256.588 220.945 256.998 221.794 257.316 222.683C256.361 222.49 255.379 222.503 254.43 222.72" fill="black"/>
<path opacity="0.1" d="M260.012 312.638V317.718L255.929 318.004H234.452V312.638H260.012Z" fill="black"/>
<path d="M260.012 312.638V318.004H234.452L166.55 228.653V224.432H180.785L260.012 312.638Z" fill="#F1C0C0"/>
<path opacity="0.1" d="M260.012 312.638V318.004H234.452L166.55 228.653V224.432H180.785L260.012 312.638Z" fill="black"/>
<path opacity="0.1" d="M260.012 312.638V318.004H234.452L166.55 228.653V224.432L234.82 312.638H260.012Z" fill="black"/>
<path d="M175.451 402.194C175.496 402.447 175.49 402.706 175.435 402.956C175.38 403.207 175.277 403.442 175.131 403.648C174.985 403.855 174.8 404.027 174.588 404.155C174.376 404.283 174.142 404.363 173.898 404.392C172.251 404.977 170.503 405.556 169.335 406.882C168.168 408.208 167.937 410.667 169.335 411.744C170.05 412.197 170.871 412.431 171.706 412.422C174.39 412.615 177.188 412.578 179.623 411.383C181.365 410.536 183.007 409.092 184.921 409.222C185.911 409.285 186.966 409.77 187.849 409.297C188.732 408.824 188.981 407.504 188.987 406.402C189.009 404.102 188.679 401.813 188.009 399.623C187.92 399.324 184.151 399.094 183.7 399.001L179.131 398.378C178.266 398.26 176.399 397.575 175.718 398.334C175.036 399.094 175.451 401.291 175.451 402.194Z" fill="#871E99"/>
<path d="M202.718 386.656C202.911 387.777 203.226 388.871 203.654 389.918C204.288 391.611 205.1 393.41 206.653 394.232C208.063 394.973 209.794 394.705 211.228 394.002C211.827 393.741 212.351 393.323 212.751 392.788C213.214 391.941 213.42 390.966 213.344 389.993C213.344 387.583 213.207 385.093 212.158 382.952C211.258 381.084 209.687 379.478 209.664 377.411L204.265 378.507C203.976 378.536 203.7 378.651 203.471 378.837C203.3 379.026 203.181 379.261 203.127 379.516C202.55 381.845 202.412 384.27 202.718 386.656Z" fill="#871E99"/>
<path d="M138.247 327.516C138.021 329.521 138.116 331.668 139.112 333.399C140.107 335.13 142.205 336.275 144.019 335.584C144.112 335.559 144.199 335.515 144.275 335.454C144.352 335.393 144.415 335.317 144.463 335.229C144.511 335.019 144.484 334.797 144.386 334.607C143.586 332.362 143.652 329.878 144.57 327.684C144.688 327.398 144.943 327.062 145.222 327.174C145.338 327.236 145.432 327.336 145.488 327.46C145.775 327.981 145.919 328.576 145.903 329.178C145.82 329.724 145.804 330.278 145.856 330.828C145.968 331.363 146.514 331.868 146.988 331.637C147.125 331.549 147.243 331.432 147.336 331.294C147.429 331.156 147.494 330.999 147.527 330.834C148.849 326.819 148.25 322.43 147.646 318.228C147.651 318.132 147.635 318.035 147.601 317.945C147.567 317.856 147.514 317.775 147.447 317.709C147.38 317.643 147.299 317.594 147.212 317.564C147.124 317.534 147.032 317.525 146.94 317.537C144.143 317.244 142.614 316.541 141.014 319.274C139.639 321.577 138.247 324.746 138.247 327.516Z" fill="#871E99"/>
<path d="M170.947 317.301C170.117 320.924 169.282 324.59 169.229 328.313C169.243 330.632 169.409 332.947 169.726 335.242L170.349 340.633C170.562 342.45 170.769 344.262 171.072 346.061C171.264 346.988 171.37 347.933 171.386 348.881C171.328 349.816 171.187 350.744 170.965 351.651C170.592 353.558 170.384 355.495 170.343 357.441C170.277 360.554 170.645 363.666 170.876 366.779C171.337 372.981 171.268 379.215 170.669 385.405C170.429 387.075 170.775 388.781 171.64 390.204C171.992 390.653 172.281 391.152 172.5 391.686C172.944 393.112 171.907 394.537 171.64 396C171.47 397.141 171.737 398.306 172.384 399.24C173.031 400.174 174.004 400.8 175.09 400.98C179.831 401.572 184.702 401.304 188.975 403.582C189.425 402.2 188.441 400.632 188.892 399.225C189.176 398.353 189.958 397.787 190.492 397.052C191.208 395.933 191.565 394.602 191.511 393.255C191.532 391.496 191.234 389.749 190.634 388.106C190.13 386.737 189.407 385.386 189.449 383.917C189.449 383.195 189.692 382.435 189.413 381.769C189.222 381.386 188.963 381.046 188.649 380.767C186.878 378.729 185.789 376.138 185.549 373.39C185.318 370.663 185.402 367.916 185.798 365.21C186.089 362.633 186.48 359.912 188.038 357.902C187.316 351.804 187.74 345.618 189.289 339.693C189.443 339.145 189.686 338.51 190.219 338.379C190.431 338.356 190.645 338.387 190.843 338.47C191.041 338.552 191.217 338.683 191.357 338.852C192.287 339.767 192.732 341.093 193.135 342.363C193.579 343.739 194.03 345.208 193.692 346.615C193.55 347.238 193.265 347.786 193.099 348.383C192.739 349.584 192.802 350.881 193.277 352.037C193.509 352.46 193.654 352.928 193.704 353.413C193.649 353.829 193.529 354.233 193.348 354.608C193.128 355.345 193.059 356.122 193.143 356.889C193.228 357.656 193.465 358.395 193.84 359.059C194.595 360.381 195.527 361.583 196.608 362.627C196.091 365.016 196.225 367.509 196.993 369.823C197.048 369.927 197.084 370.042 197.097 370.16C197.11 370.279 197.101 370.399 197.07 370.514C196.963 370.75 196.691 370.838 196.477 371.006C195.885 371.516 196.252 372.481 196.649 373.147C197.737 374.975 198.939 376.726 200.246 378.389C201.432 379.877 201.325 382.746 203.091 383.282C203.833 383.45 204.601 383.45 205.343 383.282C207.085 383.002 209.029 382.473 209.882 380.854C210.232 380.188 210.374 379.379 210.919 378.881C211.465 378.383 212.17 378.295 212.472 377.698C212.774 377.1 212.436 376.316 212.537 375.625C212.638 374.934 213.213 374.38 213.397 373.651C213.835 371.971 211.968 370.589 211.713 368.87C211.346 366.38 214.333 364.513 214.208 362.023C213.948 356.613 213.782 351.178 213.515 345.769C213.18 340.923 213.133 336.06 213.373 331.208C213.58 328.188 213.965 325.026 212.911 322.218C211.393 318.259 207.21 316.037 203.162 315.613C199.114 315.19 195.079 316.199 191.067 316.859C184.408 317.936 177.643 318.085 170.947 317.301Z" fill="#3F3D56"/>
<path d="M182.977 257.8C188.22 257.8 192.471 253.335 192.471 247.827C192.471 242.319 188.22 237.854 182.977 237.854C177.734 237.854 173.483 242.319 173.483 247.827C173.483 253.335 177.734 257.8 182.977 257.8Z" fill="#FBBEBE"/>
<path d="M179.113 259.661C178.791 260.45 178.249 261.118 177.558 261.577C176.867 262.035 176.06 262.264 175.244 262.232C174.9 263.726 175.724 265.233 176.666 266.409C178.623 268.801 181.151 270.601 183.991 271.624C186.831 272.647 189.879 272.856 192.821 272.23C193.966 272.014 195.052 271.538 196.003 270.835C197.286 269.71 198.146 268.144 198.433 266.415C198.706 264.698 198.783 262.953 198.664 261.217C198.697 260.874 198.604 260.531 198.403 260.259C198.166 260.066 197.873 259.965 197.574 259.972C195.571 259.786 193.479 259.705 191.719 258.671C189.958 257.638 188.708 255.303 189.555 253.386C189.419 253.685 185.958 253.828 185.502 253.89C184.074 254.102 182.646 254.338 181.223 254.612C180.54 254.652 179.864 254.786 179.214 255.011C178.355 255.478 178.675 255.247 178.876 256.094C179.179 257.389 179.623 258.316 179.113 259.661Z" fill="#FBBEBE"/>
<path d="M186.338 265.724C185.059 265.74 183.783 265.591 182.539 265.282C181.283 264.974 180.175 264.198 179.422 263.097C178.983 262.4 178.699 261.522 178 261.13C176.856 260.508 175.552 261.56 174.639 262.525C173.808 263.476 172.845 264.291 171.783 264.94C170.515 265.643 169.033 265.893 167.836 266.72C166.901 267.463 166.098 268.373 165.466 269.41L157.068 281.424C153.696 286.255 150.763 291.441 147.758 296.539C145.157 300.953 143.793 306.033 141.832 310.795C141.677 311.087 141.612 311.422 141.648 311.754C141.719 312.078 142.093 312.339 142.353 312.152C141.47 313.074 142.247 314.642 142.039 315.937C141.804 316.843 141.312 317.653 140.629 318.259C141.933 318.08 143.258 318.146 144.54 318.452C145.866 318.847 147.117 319.479 148.238 320.32C148.955 320.201 148.89 318.863 149.423 318.365C149.743 318.072 150.217 318.11 150.638 318.023C152.221 317.699 152.849 315.701 154.064 314.574C155.077 313.634 156.511 313.329 157.584 312.445C159.326 311.007 159.699 308.448 160.612 306.325C161.388 304.526 162.609 302.958 163.291 301.115C163.735 299.92 163.949 298.625 164.583 297.523C165.596 295.743 167.504 294.796 169.324 293.943C170.473 293.402 171.694 292.842 172.933 292.929C172.867 295.823 172.518 298.675 173.116 301.501C173.324 302.497 173.614 303.468 173.863 304.458C174.995 308.915 175.262 313.559 175.315 318.153C178.038 317.499 180.819 317.148 183.612 317.108C185.81 317.039 188.003 317.338 190.202 317.294C192.809 317.245 195.387 316.715 197.995 316.529C200.602 316.342 203.328 316.529 205.633 317.774C205.446 313.828 205.551 309.874 205.947 305.946L206.576 299.758C206.717 297.96 206.981 296.175 207.364 294.417C207.708 292.997 208.205 291.628 208.585 290.215C209.918 285.234 209.675 279.918 209.42 274.732C209.29 272.068 208.312 269.447 207.162 267.075C206.746 266.194 206.271 265.346 205.74 264.535C204.351 262.525 202.499 260.916 200.358 259.86C198.217 258.804 195.857 258.335 193.497 258.497C193.195 258.507 192.898 258.574 192.619 258.696C192.119 259.033 191.729 259.521 191.499 260.097C190.273 262.412 188.494 264.351 186.338 265.724Z" fill="#3F3D56"/>
<path d="M174.628 251.132C174.894 250.51 175.611 250.28 176.05 249.782C176.892 248.835 176.512 247.323 176.643 246.046C176.856 244.179 178.332 242.616 180.021 241.95C181.743 241.37 183.576 241.248 185.354 241.595C186.21 241.661 187.037 241.95 187.76 242.436C188.068 242.672 188.353 242.977 188.643 243.195C189.173 243.531 189.806 243.637 190.408 243.489C191.011 243.341 191.534 242.952 191.867 242.405C189.769 239.753 187.446 236.951 184.258 236.136C183.164 235.901 182.049 235.791 180.933 235.806C179.458 235.775 177.935 235.75 176.572 236.341C174.717 237.144 173.413 238.993 172.743 240.985C172.158 243.004 171.844 245.1 171.813 247.211C171.691 248.619 171.691 250.036 171.813 251.444C172.042 253.367 172.722 255.2 173.792 256.779C173.937 257.024 174.141 257.224 174.385 257.358C177.087 258.603 174.408 251.649 174.628 251.132Z" fill="#3F3D56"/>
<path d="M191.559 240.867C191.233 237.935 189.242 235.513 187.126 233.565C185.421 231.875 183.39 230.591 181.17 229.799C178.936 229.108 176.364 229.257 174.45 230.658C172.909 231.784 171.931 233.577 171.179 235.383C170.19 237.513 169.7 239.861 169.751 242.23C169.899 244.583 170.989 246.968 172.933 248.157C173.632 247.074 174.847 246.513 176.015 246.071C181.103 244.043 186.292 242.306 191.559 240.867Z" fill="#FED253"/>
<path opacity="0.1" d="M173.584 239.647C173.774 239.647 173.898 239.852 173.993 240.02C174.475 240.81 174.89 241.643 175.231 242.51C174.538 242.666 173.347 242.84 173.003 242.199C172.819 241.875 173.039 239.616 173.584 239.647Z" fill="black"/>
<path opacity="0.1" d="M187.09 238.24C186.948 238.383 186.782 238.091 186.782 237.879V235.463C186.778 235.396 186.792 235.329 186.823 235.271C186.848 235.241 186.878 235.217 186.912 235.2C186.945 235.183 186.982 235.173 187.019 235.171C187.499 235.115 187.896 235.544 188.204 235.955C188.672 236.621 189.079 237.332 189.419 238.078L186.912 237.997" fill="black"/>
<path d="M218.375 278.237C218.92 277.693 219.502 277.192 220.117 276.737C221.759 275.585 223.744 275.131 225.587 274.396C227.43 273.662 229.303 272.473 230.02 270.543C230.379 269.336 230.496 268.064 230.363 266.808C230.381 266.281 230.292 265.757 230.103 265.27C229.877 264.839 229.556 264.472 229.166 264.199C226.665 262.257 223.311 262.101 220.206 262.301C213.36 262.746 206.649 264.506 200.406 267.492C200.076 267.607 199.787 267.824 199.577 268.115C199.455 268.385 199.4 268.682 199.417 268.98C199.306 270.816 199.534 272.657 200.086 274.402C200.904 276.619 202.587 278.405 203.293 280.665C203.613 281.68 203.719 282.757 203.998 283.778C204.226 284.832 204.82 285.759 205.663 286.38C208.004 287.849 210.214 285.876 211.838 284.344L218.375 278.237Z" fill="#3F3D56"/>
<path d="M187.718 286.859L184.713 279.974C184.273 279.02 183.893 278.036 183.575 277.029C183.232 275.828 183.066 274.583 182.746 273.375C181.691 269.354 179.03 266.005 177.732 262.064C177.65 261.708 177.483 261.38 177.246 261.111C177.057 260.971 176.84 260.875 176.612 260.832C176.383 260.789 176.149 260.8 175.925 260.862C174.111 261.192 172.695 262.643 171.036 263.465C170.265 263.838 169.435 264.087 168.665 264.517C168.28 264.708 167.939 264.985 167.665 265.328C167.391 265.67 167.19 266.071 167.077 266.503C166.893 267.455 167.344 268.37 167.723 269.298C169.335 273.12 169.702 277.39 169.773 281.574C169.827 284.388 169.69 287.407 168.108 289.667C165.068 294.024 167.012 300.424 168.149 305.697C168.286 306.319 168.446 306.992 168.541 307.651C168.641 308.477 168.686 309.309 168.677 310.142C168.677 312.937 168.529 315.819 167.415 318.353C168.515 318.967 169.727 319.328 170.97 319.411C174.411 319.872 177.866 320.195 181.335 320.382C182.422 320.489 183.518 320.431 184.589 320.208C185.86 319.847 186.981 319.051 187.774 317.946C188.567 316.841 188.987 315.491 188.968 314.107C189.158 315.831 189.508 317.705 190.699 318.9C191.89 320.096 193.626 320.276 195.244 320.37C199.81 320.624 204.388 320.489 208.934 319.965C209.224 319.951 209.509 319.882 209.775 319.759C210.652 319.299 210.7 318.029 210.629 317.008C210.498 315.097 210.362 313.186 210.143 311.287C209.957 310.076 209.862 308.853 209.858 307.626C209.948 306.365 210.147 305.115 210.451 303.891C211.245 300.007 211.873 296.041 211.606 292.063C211.501 291.094 211.463 290.119 211.494 289.144C211.648 286.946 212.75 284.855 212.543 282.67C211.95 276.245 211.47 269.653 209.763 263.452C209.455 262.344 209.064 261.155 208.145 260.52C206.96 259.686 205.295 260.122 203.938 259.593C203.301 259.281 202.696 258.904 202.13 258.466C200.902 257.659 199.495 257.204 198.047 257.146C196.957 257.102 195.742 257.358 195.084 258.279C194.779 258.798 194.578 259.376 194.491 259.978C193.632 263.776 192.625 267.53 191.617 271.284L190.651 274.882L188.062 284.543C187.807 285.57 187.979 285.888 187.718 286.859Z" fill="#871E99"/>
<path d="M202.872 249.165L260.196 312.445V317.811H234.636L191.559 258.752" fill="#F1C0C0"/>
<path opacity="0.1" d="M202.872 249.165L260.196 312.445V317.811H234.636L191.559 258.752" fill="black"/>
<path opacity="0.1" d="M192.471 257.918L192.655 257.986L235.004 312.445H260.196V317.811H234.636L191.559 258.752L192.471 257.918Z" fill="black"/>
<path d="M199.067 259.25C196.993 260.203 194.687 261.423 194.065 263.714C193.942 264.116 193.916 264.543 193.988 264.959C194.14 265.447 194.429 265.876 194.817 266.188C195.205 266.5 195.675 266.682 196.163 266.708C197.139 266.733 198.109 266.546 199.013 266.16L211.251 261.915C211.583 261.802 211.962 261.634 212.045 261.292C212.066 261.077 212.025 260.86 211.927 260.67C211.547 259.698 211.174 257.713 210.38 257.034C209.728 256.486 208.436 256.679 207.648 256.692C204.614 256.716 201.763 258.005 199.067 259.25Z" fill="#871E99"/>
<path d="M209.977 262.419C212.038 262.412 214.088 262.747 216.051 263.409C218.023 264.081 219.769 265.334 221.082 267.019C221.465 267.49 221.737 268.049 221.877 268.65C221.995 269.273 223.927 269.646 223.5 270.07C224.798 269.852 224.49 270.493 225.806 270.481C227.121 270.468 228.544 270.113 229.332 269.011C229.879 268.106 230.123 267.035 230.025 265.967C230.042 265.228 229.909 264.494 229.634 263.813C229.041 262.506 227.678 261.803 226.422 261.199L215.838 256.113C215.224 255.77 214.565 255.524 213.882 255.384C213.308 255.327 212.729 255.342 212.158 255.428L207.363 256.007C208.412 256.72 209.265 257.707 209.84 258.872C210.415 260.036 210.691 261.338 210.64 262.649" fill="#3F3D56"/>
</g>
<defs>
<clipPath id="clip0">
<rect width="698" height="451" fill="white"/>
</clipPath>
</defs>
</svg>
